<svg width="0" height="0" class="hidden">
  <symbol xmlns="http://www.w3.org/2000/svg" viewBox="0 0 24 24" id="account">
    <path d="M12 2C6.48 2 2 6.48 2 12C2 17.52 6.48 22 12 22C17.52 22 22 17.52 22 12C22 6.48 17.52 2 12 2ZM12 5C13.66 5 15 6.34 15 8C15 9.66 13.66 11 12 11C10.34 11 9 9.66 9 8C9 6.34 10.34 5 12 5ZM12 19.2C9.5 19.2 7.29 17.92 6 15.98C6.03 13.99 10 12.9 12 12.9C13.99 12.9 17.97 13.99 18 15.98C16.71 17.92 14.5 19.2 12 19.2Z"></path>
  </symbol>
  <symbol xmlns="http://www.w3.org/2000/svg" viewBox="0 0 24 24" id="account_balance_wallet">
    <path d="M10 16V8C10 6.9 10.89 6 12 6H21V5C21 3.9 20.1 3 19 3H5C3.89 3 3 3.9 3 5V19C3 20.1 3.89 21 5 21H19C20.1 21 21 20.1 21 19V18H12C10.89 18 10 17.1 10 16ZM13 8C12.45 8 12 8.45 12 9V15C12 15.55 12.45 16 13 16H22V8H13ZM16 13.5C15.17 13.5 14.5 12.83 14.5 12C14.5 11.17 15.17 10.5 16 10.5C16.83 10.5 17.5 11.17 17.5 12C17.5 12.83 16.83 13.5 16 13.5Z"></path>
  </symbol>
  <symbol xmlns="http://www.w3.org/2000/svg" viewBox="0 0 24 24" id="add">
    <path d="M18 13H13V18C13 18.55 12.55 19 12 19C11.45 19 11 18.55 11 18V13H6C5.45 13 5 12.55 5 12C5 11.45 5.45 11 6 11H11V6C11 5.45 11.45 5 12 5C12.55 5 13 5.45 13 6V11H18C18.55 11 19 11.45 19 12C19 12.55 18.55 13 18 13Z"></path>
  </symbol>
  <symbol xmlns="http://www.w3.org/2000/svg" viewBox="0 0 24 24" id="arrow_back_ios">
    <g clip-path="url(#clip0_996_22257)">
      <path d="M16.62 2.99C16.13 2.5 15.34 2.5 14.85 2.99L6.54 11.3C6.15 11.69 6.15 12.32 6.54 12.71L14.85 21.02C15.34 21.51 16.13 21.51 16.62 21.02C17.11 20.53 17.11 19.74 16.62 19.25L9.38 12L16.63 4.75C17.11 4.27 17.11 3.47 16.62 2.99Z"></path>
    </g>
    <defs>
      <clipPath id="clip0_996_22257">
        <rect width="24" height="24" fill="white"></rect>
      </clipPath>
    </defs>
  </symbol>
  <symbol xmlns="http://www.w3.org/2000/svg" viewBox="0 0 24 24" id="arrow_forward_ios">
    <path d="M7.37999 21.01C7.86999 21.5 8.65999 21.5 9.14999 21.01L17.46 12.7C17.85 12.31 17.85 11.68 17.46 11.29L9.14999 2.97999C8.65999 2.48999 7.86999 2.48999 7.37999 2.97999C6.88999 3.46999 6.88999 4.25999 7.37999 4.74999L14.62 12L7.36999 19.25C6.88999 19.73 6.88999 20.53 7.37999 21.01Z"></path>
  </symbol>
  <symbol xmlns="http://www.w3.org/2000/svg" viewBox="0 0 24 24" id="attach_file">
    <path d="M16.5 6.75002V17.33C16.5 19.42 14.97 21.28 12.89 21.48C10.5 21.71 8.5 19.84 8.5 17.5V5.14002C8.5 3.83002 9.44 2.64002 10.74 2.51002C12.24 2.36002 13.5 3.53002 13.5 5.00002V15.5C13.5 16.05 13.05 16.5 12.5 16.5C11.95 16.5 11.5 16.05 11.5 15.5V6.75002C11.5 6.34002 11.16 6.00002 10.75 6.00002C10.34 6.00002 10 6.34002 10 6.75002V15.36C10 16.67 10.94 17.86 12.24 17.99C13.74 18.14 15 16.97 15 15.5V5.17002C15 3.08002 13.47 1.22002 11.39 1.02002C9.01 0.790024 7 2.66002 7 5.00002V17.27C7 20.14 9.1 22.71 11.96 22.98C15.25 23.28 18 20.72 18 17.5V6.75002C18 6.34002 17.66 6.00002 17.25 6.00002C16.84 6.00002 16.5 6.34002 16.5 6.75002Z"></path>
  </symbol>
  <symbol xmlns="http://www.w3.org/2000/svg" viewBox="0 0 24 24" id="calendar_input">
    <g clip-path="url(#clip0_60_41058)">
      <path d="M19 3H18V2C18 1.45 17.55 1 17 1C16.45 1 16 1.45 16 2V3H8V2C8 1.45 7.55 1 7 1C6.45 1 6 1.45 6 2V3H5C3.89 3 3.01 3.9 3.01 5L3 19C3 20.1 3.89 21 5 21H19C20.1 21 21 20.1 21 19V5C21 3.9 20.1 3 19 3ZM18 19H6C5.45 19 5 18.55 5 18V8H19V18C19 18.55 18.55 19 18 19ZM8 10H11C11.55 10 12 10.45 12 11V14C12 14.55 11.55 15 11 15H8C7.45 15 7 14.55 7 14V11C7 10.45 7.45 10 8 10Z"></path>
    </g>
    <defs>
      <clipPath id="clip0_60_41058">
        <rect width="24" height="24" fill="white"></rect>
      </clipPath>
    </defs>
  </symbol>
  <symbol xmlns="http://www.w3.org/2000/svg" viewBox="0 0 24 24" id="camera">
    <path d="M12 17.5C13.25 17.5 14.3127 17.0627 15.188 16.188C16.0627 15.3127 16.5 14.25 16.5 13C16.5 11.75 16.0627 10.6873 15.188 9.812C14.3127 8.93733 13.25 8.5 12 8.5C10.75 8.5 9.68733 8.93733 8.812 9.812C7.93733 10.6873 7.5 11.75 7.5 13C7.5 14.25 7.93733 15.3127 8.812 16.188C9.68733 17.0627 10.75 17.5 12 17.5ZM12 15.5C11.3 15.5 10.7083 15.2583 10.225 14.775C9.74167 14.2917 9.5 13.7 9.5 13C9.5 12.3 9.74167 11.7083 10.225 11.225C10.7083 10.7417 11.3 10.5 12 10.5C12.7 10.5 13.2917 10.7417 13.775 11.225C14.2583 11.7083 14.5 12.3 14.5 13C14.5 13.7 14.2583 14.2917 13.775 14.775C13.2917 15.2583 12.7 15.5 12 15.5ZM4 21C3.45 21 2.97933 20.8043 2.588 20.413C2.196 20.021 2 19.55 2 19V7C2 6.45 2.196 5.97933 2.588 5.588C2.97933 5.196 3.45 5 4 5H7.15L9 3H15L16.85 5H20C20.55 5 21.021 5.196 21.413 5.588C21.8043 5.97933 22 6.45 22 7V19C22 19.55 21.8043 20.021 21.413 20.413C21.021 20.8043 20.55 21 20 21H4ZM20 19V7H15.95L14.125 5H9.875L8.05 7H4V19H20Z"></path>
  </symbol>
  <symbol xmlns="http://www.w3.org/2000/svg" viewBox="0 0 24 24" id="chat">
    <path d="M20 2H4C2.9 2 2.01 2.9 2.01 4L2 22L6 18H20C21.1 18 22 17.1 22 16V4C22 2.9 21.1 2 20 2ZM7 9H17C17.55 9 18 9.45 18 10C18 10.55 17.55 11 17 11H7C6.45 11 6 10.55 6 10C6 9.45 6.45 9 7 9ZM13 14H7C6.45 14 6 13.55 6 13C6 12.45 6.45 12 7 12H13C13.55 12 14 12.45 14 13C14 13.55 13.55 14 13 14ZM17 8H7C6.45 8 6 7.55 6 7C6 6.45 6.45 6 7 6H17C17.55 6 18 6.45 18 7C18 7.55 17.55 8 17 8Z"></path>
  </symbol>
  <symbol xmlns="http://www.w3.org/2000/svg" viewBox="0 0 24 24" id="check">
    <g clip-path="url(#clip0_60_44161)">
      <path d="M9.00001 16.17L5.53001 12.7C5.14002 12.31 4.51001 12.31 4.12001 12.7C3.73001 13.09 3.73001 13.72 4.12001 14.11L8.30001 18.29C8.69001 18.68 9.32001 18.68 9.71001 18.29L20.29 7.71001C20.68 7.32001 20.68 6.69001 20.29 6.30001C19.9 5.91001 19.27 5.91001 18.88 6.30001L9.00001 16.17Z"></path>
    </g>
    <defs>
      <clipPath id="clip0_60_44161">
        <rect width="24" height="24" fill="white"></rect>
      </clipPath>
    </defs>
  </symbol>
  <symbol xmlns="http://www.w3.org/2000/svg" viewBox="0 0 24 24" id="check_circle_outline">
    <g clip-path="url(#clip0_1022_25306)">
      <path d="M12 2C6.48 2 2 6.48 2 12C2 17.52 6.48 22 12 22C17.52 22 22 17.52 22 12C22 6.48 17.52 2 12 2ZM12 20C7.59 20 4 16.41 4 12C4 7.59 7.59 4 12 4C16.41 4 20 7.59 20 12C20 16.41 16.41 20 12 20ZM15.88 8.29L10 14.17L8.12 12.29C7.73 11.9 7.1 11.9 6.71 12.29C6.32 12.68 6.32 13.31 6.71 13.7L9.3 16.29C9.69 16.68 10.32 16.68 10.71 16.29L17.3 9.7C17.69 9.31 17.69 8.68 17.3 8.29C16.91 7.9 16.27 7.9 15.88 8.29Z"></path>
    </g>
    <defs>
      <clipPath id="clip0_1022_25306">
        <rect width="24" height="24" fill="white"></rect>
      </clipPath>
    </defs>
  </symbol>
  <symbol xmlns="http://www.w3.org/2000/svg" viewBox="0 0 24 24" id="chevron_left">
    <g clip-path="url(#clip0_60_44164)">
      <path d="M14.71 6.70998C14.32 6.31998 13.69 6.31998 13.3 6.70998L8.70998 11.3C8.31998 11.69 8.31998 12.32 8.70998 12.71L13.3 17.3C13.69 17.69 14.32 17.69 14.71 17.3C15.1 16.91 15.1 16.28 14.71 15.89L10.83 12L14.71 8.11998C15.1 7.72998 15.09 7.08998 14.71 6.70998Z"></path>
    </g>
    <defs>
      <clipPath id="clip0_60_44164">
        <rect width="24" height="24" fill="white"></rect>
      </clipPath>
    </defs>
  </symbol>
  <symbol xmlns="http://www.w3.org/2000/svg" viewBox="0 0 24 24" id="chevron_right">
    <path d="M9.29006 6.71002C8.90006 7.10002 8.90006 7.73002 9.29006 8.12002L13.1701 12L9.29006 15.88C8.90006 16.27 8.90006 16.9 9.29006 17.29C9.68006 17.68 10.3101 17.68 10.7001 17.29L15.2901 12.7C15.6801 12.31 15.6801 11.68 15.2901 11.29L10.7001 6.70002C10.3201 6.32002 9.68006 6.32002 9.29006 6.71002Z"></path>
  </symbol>
  <symbol xmlns="http://www.w3.org/2000/svg" viewBox="0 0 24 24" id="close">
    <path d="M18.3 5.70997C17.91 5.31997 17.28 5.31997 16.89 5.70997L12 10.59L7.10997 5.69997C6.71997 5.30997 6.08997 5.30997 5.69997 5.69997C5.30997 6.08997 5.30997 6.71997 5.69997 7.10997L10.59 12L5.69997 16.89C5.30997 17.28 5.30997 17.91 5.69997 18.3C6.08997 18.69 6.71997 18.69 7.10997 18.3L12 13.41L16.89 18.3C17.28 18.69 17.91 18.69 18.3 18.3C18.69 17.91 18.69 17.28 18.3 16.89L13.41 12L18.3 7.10997C18.68 6.72997 18.68 6.08997 18.3 5.70997Z"></path>
  </symbol>
  <symbol xmlns="http://www.w3.org/2000/svg" viewBox="0 0 24 24" id="comment">
    <path d="M21.99 4C21.99 2.9 21.1 2 20 2H4C2.9 2 2 2.9 2 4V16C2 17.1 2.9 18 4 18H18L22 22L21.99 4ZM18 14H6V12H18V14ZM18 11H6V9H18V11ZM18 8H6V6H18V8Z"></path>
  </symbol>
  <symbol xmlns="http://www.w3.org/2000/svg" viewBox="0 0 24 24" id="create">
    <path d="M3 17.46V20.5C3 20.78 3.22 21 3.5 21H6.54C6.67 21 6.8 20.95 6.89 20.85L17.81 9.94L14.06 6.19L3.15 17.1C3.05 17.2 3 17.32 3 17.46ZM20.71 7.04C21.1 6.65 21.1 6.02 20.71 5.63L18.37 3.29C17.98 2.9 17.35 2.9 16.96 3.29L15.13 5.12L18.88 8.87L20.71 7.04Z"></path>
  </symbol>
  <symbol xmlns="http://www.w3.org/2000/svg" viewBox="0 0 24 24" id="create-1">
    <path d="M3 17.46V20.5C3 20.78 3.22 21 3.5 21H6.54C6.67 21 6.8 20.95 6.89 20.85L17.81 9.94L14.06 6.19L3.15 17.1C3.05 17.2 3 17.32 3 17.46ZM20.71 7.04C21.1 6.65 21.1 6.02 20.71 5.63L18.37 3.29C17.98 2.9 17.35 2.9 16.96 3.29L15.13 5.12L18.88 8.87L20.71 7.04Z"></path>
  </symbol>
  <symbol xmlns="http://www.w3.org/2000/svg" viewBox="0 0 30 30" id="cursors">
    <g filter="url(#filter0_d_815_19853)">
      <path fill-rule="evenodd" clip-rule="evenodd" d="M24.3564 15.2631L9.9282 6.27277L10.5 23.2631L14.6415 18.4364L17.6962 23.7272L21.1603 21.7272L18.1056 16.4364L24.3564 15.2631Z" fill="url(#paint0_linear_815_19853)"></path>
    </g>
    <path fill-rule="evenodd" clip-rule="evenodd" d="M24.3564 15.2631L9.9282 6.27277L10.5 23.2631L14.6415 18.4364L17.6962 23.7272L21.1603 21.7272L18.1056 16.4364L24.3564 15.2631ZM19.7942 21.3612L16.5338 15.7139L21.6483 14.754L10.9907 8.11307L11.4131 20.6633L14.8017 16.7139L18.0622 22.3612L19.7942 21.3612Z" fill="white"></path>
    <defs>
      <filter id="filter0_d_815_19853" x="8.92822" y="6.27277" width="16.4282" height="19.4545" filterUnits="userSpaceOnUse" color-interpolation-filters="sRGB">
        <feFlood flood-opacity="0" result="BackgroundImageFix"></feFlood>
        <feColorMatrix in="SourceAlpha" type="matrix" values="0 0 0 0 0 0 0 0 0 0 0 0 0 0 0 0 0 0 127 0" result="hardAlpha"></feColorMatrix>
        <feOffset dy="1"></feOffset>
        <feGaussianBlur stdDeviation="0.5"></feGaussianBlur>
        <feComposite in2="hardAlpha" operator="out"></feComposite>
        <feColorMatrix type="matrix" values="0 0 0 0 0 0 0 0 0 0 0 0 0 0 0 0 0 0 0.1 0"></feColorMatrix>
        <feBlend mode="normal" in2="BackgroundImageFix" result="effect1_dropShadow_815_19853"></feBlend>
        <feBlend mode="normal" in="SourceGraphic" in2="effect1_dropShadow_815_19853" result="shape"></feBlend>
      </filter>
      <linearGradient id="paint0_linear_815_19853" x1="9.9282" y1="6.27277" x2="19.4282" y2="22.7272" gradientUnits="userSpaceOnUse">
        <stop offset="0.353422" stop-color="#24303A"></stop>
        <stop offset="1" stop-color="#060A0E"></stop>
      </linearGradient>
    </defs>
  </symbol>
  <symbol xmlns="http://www.w3.org/2000/svg" viewBox="0 0 30 30" id="cursors-1">
    <g filter="url(#filter0_d_815_19854)">
      <path fill-rule="evenodd" clip-rule="evenodd" d="M16.1409 11.9986C16.1401 11.447 15.6927 11 15.1409 11C14.5886 11 14.1409 11.4477 14.1409 12V13L14.1409 13.75C14.1409 13.8881 14.0289 14 13.8909 14C13.7528 14 13.6409 13.8881 13.6409 13.75V13H13.6408V8C13.6408 7.44772 13.1931 7 12.6408 7C12.0885 7 11.6408 7.44772 11.6408 8V13V15V16.2547L10.8748 14.8744C10.6068 14.3915 9.9981 14.2172 9.51519 14.4852C9.03228 14.7532 8.85806 15.3619 9.12604 15.8449L11.89 20.8254C12.183 21.3534 12.7222 21.6585 13.2849 21.6768C13.6921 21.8835 14.1529 22 14.6408 22H18.1408C19.7977 22 21.1408 20.6569 21.1408 19V15.0113L21.1409 15V13C21.1409 12.4477 20.6932 12 20.1409 12C19.5886 12 19.1409 12.4477 19.1409 13L19.1409 13.75C19.1409 13.8881 19.0289 14 18.8909 14C18.7528 14 18.6409 13.8881 18.6409 13.75L18.6409 13V12L18.6409 11.9986C18.6401 11.447 18.1927 11 17.6409 11C17.0886 11 16.6409 11.4477 16.6409 12V13L16.6409 13.75C16.6409 13.8881 16.5289 14 16.3909 14C16.2528 14 16.1409 13.8881 16.1409 13.75V11.9986Z" fill="url(#paint0_linear_815_19854)"></path>
    </g>
    <path fill-rule="evenodd" clip-rule="evenodd" d="M16.6408 12C16.6408 11.9995 16.6408 11.9991 16.6408 11.9986C16.6408 11.9984 16.6408 11.9988 16.6408 11.9986C16.6414 11.6951 16.7772 11.4227 16.9912 11.2397C17.166 11.0902 17.3928 11 17.6408 11C18.0968 11 18.4816 11.3053 18.6018 11.7226C18.6271 11.8103 18.6407 11.9029 18.6408 11.9986V13.75C18.6408 13.8881 18.7527 14 18.8908 14C19.0289 14 19.1408 13.8881 19.1408 13.75L19.1408 13C19.1408 12.6299 19.3419 12.3067 19.6408 12.1338C19.7879 12.0487 19.9587 12 20.1408 12C20.6931 12 21.1408 12.4477 21.1408 13V15L21.1407 15.0113V19C21.1407 20.6569 19.7976 22 18.1407 22H14.6407C14.1528 22 13.6921 21.8835 13.2849 21.6768C12.7222 21.6585 12.183 21.3534 11.8899 20.8254L9.12598 15.8449C8.85799 15.3619 9.03222 14.7532 9.51513 14.4852C9.88669 14.279 10.3327 14.3346 10.6407 14.5912C10.733 14.6681 10.813 14.763 10.8747 14.8744L11.6407 16.2547V8C11.6407 7.44772 12.0885 7 12.6407 7C13.193 7 13.6407 7.44772 13.6407 8V13L13.6408 13.75C13.6408 13.8881 13.7527 14 13.8908 14C14.0289 14 14.1408 13.8881 14.1408 13.75L14.1408 12C14.1408 11.6299 14.3419 11.3067 14.6407 11.1338C14.7878 11.0487 14.9586 11 15.1408 11C15.3888 11 15.6156 11.0902 15.7904 11.2397C16.0045 11.4228 16.1404 11.6948 16.1408 11.9986V13.75C16.1408 13.8881 16.2527 14 16.3908 14C16.5289 14 16.6408 13.8881 16.6408 13.75L16.6408 12ZM16.3908 10.4387C16.7332 10.1642 17.1678 10 17.6408 10C18.432 10 19.1159 10.4594 19.4403 11.1261C19.6583 11.0446 19.8943 11 20.1408 11C21.2454 11 22.1408 11.8954 22.1408 13V15.0056L22.1407 15.0141V19C22.1407 21.2091 20.3499 23 18.1407 23H14.6407C14.0663 23 13.5181 22.8783 13.0222 22.6588C12.2073 22.5608 11.4459 22.0862 11.0155 21.3106L8.2516 16.3301C7.71562 15.3643 8.06407 14.1468 9.02989 13.6109C9.54246 13.3264 10.1259 13.2911 10.6407 13.4649V8C10.6407 6.89543 11.5362 6 12.6407 6C13.7453 6 14.6407 6.89543 14.6407 8V10.063C14.8006 10.0219 14.9681 10 15.1408 10C15.6138 10 16.0484 10.1642 16.3908 10.4387Z" fill="black"></path>
    <defs>
      <filter id="filter0_d_815_19854" x="8.00024" y="7" width="14.1406" height="17" filterUnits="userSpaceOnUse" color-interpolation-filters="sRGB">
        <feFlood flood-opacity="0" result="BackgroundImageFix"></feFlood>
        <feColorMatrix in="SourceAlpha" type="matrix" values="0 0 0 0 0 0 0 0 0 0 0 0 0 0 0 0 0 0 127 0" result="hardAlpha"></feColorMatrix>
        <feOffset dy="1"></feOffset>
        <feGaussianBlur stdDeviation="0.5"></feGaussianBlur>
        <feComposite in2="hardAlpha" operator="out"></feComposite>
        <feColorMatrix type="matrix" values="0 0 0 0 0 0 0 0 0 0 0 0 0 0 0 0 0 0 0.1 0"></feColorMatrix>
        <feBlend mode="normal" in2="BackgroundImageFix" result="effect1_dropShadow_815_19854"></feBlend>
        <feBlend mode="normal" in="SourceGraphic" in2="effect1_dropShadow_815_19854" result="shape"></feBlend>
      </filter>
      <linearGradient id="paint0_linear_815_19854" x1="15.0706" y1="7" x2="15.0706" y2="22" gradientUnits="userSpaceOnUse">
        <stop offset="0.353422" stop-color="white"></stop>
        <stop offset="1" stop-color="#E7E7E7"></stop>
      </linearGradient>
    </defs>
  </symbol>
  <symbol xmlns="http://www.w3.org/2000/svg" viewBox="0 0 24 24" id="delete">
    <path d="M6 19C6 20.1 6.9 21 8 21H16C17.1 21 18 20.1 18 19V9C18 7.9 17.1 7 16 7H8C6.9 7 6 7.9 6 9V19ZM18 4H15.5L14.79 3.29C14.61 3.11 14.35 3 14.09 3H9.91C9.65 3 9.39 3.11 9.21 3.29L8.5 4H6C5.45 4 5 4.45 5 5C5 5.55 5.45 6 6 6H18C18.55 6 19 5.55 19 5C19 4.45 18.55 4 18 4Z"></path>
  </symbol>
  <symbol xmlns="http://www.w3.org/2000/svg" viewBox="0 0 24 24" id="done">
    <path d="M9 16.2L5.5 12.7C5.11 12.31 4.49 12.31 4.1 12.7C3.71 13.09 3.71 13.71 4.1 14.1L8.29 18.29C8.68 18.68 9.31 18.68 9.7 18.29L20.3 7.70001C20.69 7.31001 20.69 6.69001 20.3 6.30001C19.91 5.91001 19.29 5.91001 18.9 6.30001L9 16.2Z"></path>
  </symbol>
  <symbol xmlns="http://www.w3.org/2000/svg" viewBox="0 0 24 24" id="done_all">
    <path d="M17.3 6.29998C16.91 5.90998 16.28 5.90998 15.89 6.29998L10.25 11.94L11.66 13.35L17.3 7.69998C17.68 7.31998 17.68 6.67998 17.3 6.29998ZM21.54 6.28998L11.66 16.17L8.18002 12.7C7.79002 12.31 7.16001 12.31 6.77001 12.7C6.38001 13.09 6.38001 13.72 6.77001 14.11L10.95 18.29C11.34 18.68 11.97 18.68 12.36 18.29L22.95 7.70998C23.34 7.31998 23.34 6.68998 22.95 6.29998H22.94C22.56 5.89998 21.93 5.89998 21.54 6.28998ZM1.12001 14.12L5.30001 18.3C5.69001 18.69 6.32001 18.69 6.71001 18.3L7.41001 17.6L2.53001 12.7C2.14001 12.31 1.51001 12.31 1.12001 12.7C0.730015 13.09 0.730015 13.73 1.12001 14.12Z"></path>
  </symbol>
  <symbol xmlns="http://www.w3.org/2000/svg" viewBox="0 0 24 24" id="east">
    <g clip-path="url(#clip0_60_44173)">
      <path d="M14.29 5.70998C13.9 6.09998 13.9 6.72998 14.29 7.11998L18.17 11H3C2.45 11 2 11.45 2 12C2 12.55 2.45 13 3 13H18.18L14.3 16.88C13.91 17.27 13.91 17.9 14.3 18.29C14.69 18.68 15.32 18.68 15.71 18.29L21.3 12.7C21.69 12.31 21.69 11.68 21.3 11.29L15.7 5.70998C15.32 5.31998 14.68 5.31998 14.29 5.70998Z"></path>
    </g>
    <defs>
      <clipPath id="clip0_60_44173">
        <rect width="24" height="24" fill="white"></rect>
      </clipPath>
    </defs>
  </symbol>
  <symbol xmlns="http://www.w3.org/2000/svg" viewBox="0 0 24 24" id="email">
    <path d="M20 4H4C2.9 4 2.01 4.9 2.01 6L2 18C2 19.1 2.9 20 4 20H20C21.1 20 22 19.1 22 18V6C22 4.9 21.1 4 20 4ZM19.6 8.25L12.53 12.67C12.21 12.87 11.79 12.87 11.47 12.67L4.4 8.25C4.15 8.09 4 7.82 4 7.53C4 6.86 4.73 6.46 5.3 6.81L12 11L18.7 6.81C19.27 6.46 20 6.86 20 7.53C20 7.82 19.85 8.09 19.6 8.25Z"></path>
  </symbol>
  <symbol xmlns="http://www.w3.org/2000/svg" viewBox="0 0 24 24" id="error">
    <path d="M12 2C6.48 2 2 6.48 2 12C2 17.52 6.48 22 12 22C17.52 22 22 17.52 22 12C22 6.48 17.52 2 12 2ZM12 13C11.45 13 11 12.55 11 12V8C11 7.45 11.45 7 12 7C12.55 7 13 7.45 13 8V12C13 12.55 12.55 13 12 13ZM13 17H11V15H13V17Z"></path>
  </symbol>
  <symbol xmlns="http://www.w3.org/2000/svg" viewBox="0 0 24 24" id="expand_less">
    <g clip-path="url(#clip0_60_44176)">
      <path d="M11.29 8.70998L6.69997 13.3C6.30997 13.69 6.30997 14.32 6.69997 14.71C7.08997 15.1 7.71997 15.1 8.10997 14.71L12 10.83L15.88 14.71C16.27 15.1 16.9 15.1 17.29 14.71C17.68 14.32 17.68 13.69 17.29 13.3L12.7 8.70998C12.32 8.31998 11.68 8.31998 11.29 8.70998Z"></path>
    </g>
    <defs>
      <clipPath id="clip0_60_44176">
        <rect width="24" height="24" fill="white"></rect>
      </clipPath>
    </defs>
  </symbol>
  <symbol xmlns="http://www.w3.org/2000/svg" viewBox="0 0 24 24" id="expand_more">
    <path d="M15.88 9.29L12 13.17L8.11998 9.29C7.72998 8.9 7.09998 8.9 6.70998 9.29C6.31998 9.68 6.31998 10.31 6.70998 10.7L11.3 15.29C11.69 15.68 12.32 15.68 12.71 15.29L17.3 10.7C17.69 10.31 17.69 9.68 17.3 9.29C16.91 8.91 16.27 8.9 15.88 9.29Z"></path>
  </symbol>
  <symbol xmlns="http://www.w3.org/2000/svg" viewBox="0 0 24 24" id="filter_list">
    <path d="M11 18H13C13.55 18 14 17.55 14 17C14 16.45 13.55 16 13 16H11C10.45 16 10 16.45 10 17C10 17.55 10.45 18 11 18ZM3 7C3 7.55 3.45 8 4 8H20C20.55 8 21 7.55 21 7C21 6.45 20.55 6 20 6H4C3.45 6 3 6.45 3 7ZM7 13H17C17.55 13 18 12.55 18 12C18 11.45 17.55 11 17 11H7C6.45 11 6 11.45 6 12C6 12.55 6.45 13 7 13Z"></path>
  </symbol>
  <symbol xmlns="http://www.w3.org/2000/svg" viewBox="0 0 24 24" id="format_list_bulleted">
    <path d="M4 10.5C3.17 10.5 2.5 11.17 2.5 12C2.5 12.83 3.17 13.5 4 13.5C4.83 13.5 5.5 12.83 5.5 12C5.5 11.17 4.83 10.5 4 10.5ZM4 4.5C3.17 4.5 2.5 5.17 2.5 6C2.5 6.83 3.17 7.5 4 7.5C4.83 7.5 5.5 6.83 5.5 6C5.5 5.17 4.83 4.5 4 4.5ZM4 16.5C3.17 16.5 2.5 17.18 2.5 18C2.5 18.82 3.18 19.5 4 19.5C4.82 19.5 5.5 18.82 5.5 18C5.5 17.18 4.83 16.5 4 16.5ZM8 19H20C20.55 19 21 18.55 21 18C21 17.45 20.55 17 20 17H8C7.45 17 7 17.45 7 18C7 18.55 7.45 19 8 19ZM8 13H17C17.55 13 18 12.55 18 12C18 11.45 17.55 11 17 11H8C7.45 11 7 11.45 7 12C7 12.55 7.45 13 8 13ZM7 6C7 6.55 7.45 7 8 7H20C20.55 7 21 6.55 21 6C21 5.45 20.55 5 20 5H8C7.45 5 7 5.45 7 6Z"></path>
  </symbol>
  <symbol xmlns="http://www.w3.org/2000/svg" viewBox="0 0 16 16" id="grade">
    <g clip-path="url(#clip0_666_27721)">
      <path d="M7.99996 11.5133L11.4466 13.5933C11.7 13.7466 12.0133 13.52 11.9466 13.2333L11.0333 9.31331L14.0733 6.67998C14.2933 6.48665 14.18 6.11998 13.88 6.09331L9.87329 5.75331L8.30662 2.05998C8.19329 1.78665 7.80662 1.78665 7.69329 2.05998L6.12662 5.75331L2.11996 6.09331C1.82662 6.11998 1.70662 6.48665 1.93329 6.67998L4.97329 9.31331L4.05996 13.2333C3.99329 13.52 4.30662 13.7466 4.55996 13.5933L7.99996 11.5133Z" fill="#F3A015"></path>
    </g>
    <defs>
      <clipPath id="clip0_666_27721">
        <rect width="16" height="16" fill="white"></rect>
      </clipPath>
    </defs>
  </symbol>
  <symbol xmlns="http://www.w3.org/2000/svg" viewBox="0 0 24 24" id="group">
    <path d="M16 11C17.66 11 18.99 9.66 18.99 8C18.99 6.34 17.66 5 16 5C14.34 5 13 6.34 13 8C13 9.66 14.34 11 16 11ZM8 11C9.66 11 10.99 9.66 10.99 8C10.99 6.34 9.66 5 8 5C6.34 5 5 6.34 5 8C5 9.66 6.34 11 8 11ZM8 13C5.67 13 1 14.17 1 16.5V18C1 18.55 1.45 19 2 19H14C14.55 19 15 18.55 15 18V16.5C15 14.17 10.33 13 8 13ZM16 13C15.71 13 15.38 13.02 15.03 13.05C15.05 13.06 15.06 13.08 15.07 13.09C16.21 13.92 17 15.03 17 16.5V18C17 18.35 16.93 18.69 16.82 19H22C22.55 19 23 18.55 23 18V16.5C23 14.17 18.33 13 16 13Z"></path>
  </symbol>
  <symbol xmlns="http://www.w3.org/2000/svg" viewBox="0 0 24 24" id="help">
    <path d="M12 2C6.48 2 2 6.48 2 12C2 17.52 6.48 22 12 22C17.52 22 22 17.52 22 12C22 6.48 17.52 2 12 2ZM13 18C13 18.5523 12.5523 19 12 19C11.4477 19 11 18.5523 11 18C11 17.4477 11.4477 17 12 17C12.5523 17 13 17.4477 13 18ZM15.07 11.25L14.17 12.17C13.67 12.68 13.31 13.14 13.13 13.86C13.05 14.18 13 14.54 13 15H11V14.5C11 14.04 11.08 13.6 11.22 13.19C11.42 12.61 11.75 12.09 12.17 11.67L13.41 10.41C13.87 9.97 14.09 9.31 13.96 8.61C13.83 7.89 13.27 7.28 12.57 7.08C11.46 6.77 10.43 7.4 10.1 8.35C9.98 8.72 9.67 9 9.28 9H8.98C8.4 9 8 8.44 8.16 7.88C8.59 6.41 9.84 5.29 11.39 5.05C12.91 4.81 14.36 5.6 15.26 6.85C16.44 8.48 16.09 10.23 15.07 11.25Z"></path>
  </symbol>
  <symbol xmlns="http://www.w3.org/2000/svg" viewBox="0 0 24 24" id="home">
    <path d="M11.6655 5.99103C11.8557 5.8199 12.1443 5.8199 12.3345 5.99103L16.8345 10.041C16.9398 10.1359 17 10.2709 17 10.4127V17.5C17 17.7761 16.7761 18 16.5 18H15.5C15.2239 18 15 17.7761 15 17.5V12.5C15 12.2239 14.7761 12 14.5 12H9.5C9.22386 12 9 12.2239 9 12.5V17.5C9 17.7761 8.77614 18 8.5 18H7.5C7.22386 18 7 17.7761 7 17.5V10.4127C7 10.2709 7.06016 10.1359 7.16552 10.041L11.6655 5.99103ZM12.3345 3.30103C12.1443 3.1299 11.8557 3.1299 11.6655 3.30103L2.9685 11.1284C2.62789 11.4349 2.84474 12 3.30298 12H4.5C4.77614 12 5 12.2239 5 12.5V19.5C5 19.7761 5.22386 20 5.5 20H10.5C10.7761 20 11 19.7761 11 19.5V14.5C11 14.2239 11.2239 14 11.5 14H12.5C12.7761 14 13 14.2239 13 14.5V19.5C13 19.7761 13.2239 20 13.5 20H18.5C18.7761 20 19 19.7761 19 19.5V12.5C19 12.2239 19.2239 12 19.5 12H20.697C21.1553 12 21.3721 11.4349 21.0315 11.1284L12.3345 3.30103Z"></path>
  </symbol>
  <symbol xmlns="http://www.w3.org/2000/svg" viewBox="0 0 24 24" id="mail_outline">
    <g clip-path="url(#clip0_998_23512)">
      <path d="M20 4H4C2.9 4 2.01 4.9 2.01 6L2 18C2 19.1 2.9 20 4 20H20C21.1 20 22 19.1 22 18V6C22 4.9 21.1 4 20 4ZM20 18H4V8L12 13L20 8V18ZM12 11L4 6H20L12 11Z"></path>
    </g>
    <defs>
      <clipPath id="clip0_998_23512">
        <rect width="24" height="24" fill="white"></rect>
      </clipPath>
    </defs>
  </symbol>
  <symbol xmlns="http://www.w3.org/2000/svg" viewBox="0 0 24 24" id="video">
    <path d="M4 20C3.45 20 2.97933 19.8043 2.588 19.413C2.196 19.021 2 18.55 2 18V6C2 5.45 2.196 4.97933 2.588 4.588C2.97933 4.196 3.45 4 4 4H16C16.55 4 17.021 4.196 17.413 4.588C17.8043 4.97933 18 5.45 18 6V10.5L21.15 7.35C21.3167 7.18333 21.5 7.14167 21.7 7.225C21.9 7.30833 22 7.46667 22 7.7V16.3C22 16.5333 21.9 16.6917 21.7 16.775C21.5 16.8583 21.3167 16.8167 21.15 16.65L18 13.5V18C18 18.55 17.8043 19.021 17.413 19.413C17.021 19.8043 16.55 20 16 20H4ZM4 18H16V6H4V18ZM6.025 16H13.975C14.1917 16 14.346 15.9083 14.438 15.725C14.5293 15.5417 14.5083 15.3667 14.375 15.2L11.95 12.025C11.85 11.8917 11.7167 11.825 11.55 11.825C11.3833 11.825 11.25 11.8917 11.15 12.025L9.25 14.5L8.1 13C8 12.8667 7.86667 12.8 7.7 12.8C7.53333 12.8 7.4 12.8667 7.3 13L5.625 15.2C5.49167 15.3667 5.47067 15.5417 5.562 15.725C5.654 15.9083 5.80833 16 6.025 16Z"></path>
  </symbol>
  <symbol xmlns="http://www.w3.org/2000/svg" viewBox="0 0 24 24" id="menu">
    <g clip-path="url(#clip0_60_44182)">
      <path d="M4 18H20C20.55 18 21 17.55 21 17C21 16.45 20.55 16 20 16H4C3.45 16 3 16.45 3 17C3 17.55 3.45 18 4 18ZM4 13H20C20.55 13 21 12.55 21 12C21 11.45 20.55 11 20 11H4C3.45 11 3 11.45 3 12C3 12.55 3.45 13 4 13ZM3 7C3 7.55 3.45 8 4 8H20C20.55 8 21 7.55 21 7C21 6.45 20.55 6 20 6H4C3.45 6 3 6.45 3 7Z"></path>
    </g>
    <defs>
      <clipPath id="clip0_60_44182">
        <rect width="24" height="24" fill="white"></rect>
      </clipPath>
    </defs>
  </symbol>
  <symbol xmlns="http://www.w3.org/2000/svg" viewBox="0 0 24 24" id="menu-1">
    <path d="M4 10.5C3.17 10.5 2.5 11.17 2.5 12C2.5 12.83 3.17 13.5 4 13.5C4.83 13.5 5.5 12.83 5.5 12C5.5 11.17 4.83 10.5 4 10.5ZM4 4.5C3.17 4.5 2.5 5.17 2.5 6C2.5 6.83 3.17 7.5 4 7.5C4.83 7.5 5.5 6.83 5.5 6C5.5 5.17 4.83 4.5 4 4.5ZM4 16.5C3.17 16.5 2.5 17.18 2.5 18C2.5 18.82 3.18 19.5 4 19.5C4.82 19.5 5.5 18.82 5.5 18C5.5 17.18 4.83 16.5 4 16.5ZM8 19H20C20.55 19 21 18.55 21 18C21 17.45 20.55 17 20 17H8C7.45 17 7 17.45 7 18C7 18.55 7.45 19 8 19ZM8 13H17C17.55 13 18 12.55 18 12C18 11.45 17.55 11 17 11H8C7.45 11 7 11.45 7 12C7 12.55 7.45 13 8 13ZM7 6C7 6.55 7.45 7 8 7H20C20.55 7 21 6.55 21 6C21 5.45 20.55 5 20 5H8C7.45 5 7 5.45 7 6Z" ></path>
    <path d="M17 12H19M21 12H19M19 12V14M19 12V10" stroke="#FF8658" stroke-width="2" stroke-linecap="round"></path>
  </symbol>
  <symbol xmlns="http://www.w3.org/2000/svg" viewBox="0 0 24 24" id="more_vert">
    <path d="M12 8C13.1 8 14 7.1 14 6C14 4.9 13.1 4 12 4C10.9 4 10 4.9 10 6C10 7.1 10.9 8 12 8ZM12 10C10.9 10 10 10.9 10 12C10 13.1 10.9 14 12 14C13.1 14 14 13.1 14 12C14 10.9 13.1 10 12 10ZM12 16C10.9 16 10 16.9 10 18C10 19.1 10.9 20 12 20C13.1 20 14 19.1 14 18C14 16.9 13.1 16 12 16Z"></path>
  </symbol>
  <symbol xmlns="http://www.w3.org/2000/svg" viewBox="0 0 24 24" id="north">
    <path d="M5.70998 9.69997C6.09998 10.09 6.72998 10.09 7.11998 9.69997L11 5.82997V21C11 21.55 11.45 22 12 22C12.55 22 13 21.55 13 21V5.82997L16.88 9.70997C17.27 10.1 17.9 10.1 18.29 9.70997C18.68 9.31997 18.68 8.68997 18.29 8.29997L12.7 2.69997C12.31 2.30997 11.68 2.30997 11.29 2.69997L5.70998 8.28997C5.31998 8.67997 5.31998 9.31997 5.70998 9.69997Z"></path>
  </symbol>
  <symbol xmlns="http://www.w3.org/2000/svg" viewBox="0 0 24 24" id="person">
    <path d="M12 6C13.1 6 14 6.9 14 8C14 9.1 13.1 10 12 10C10.9 10 10 9.1 10 8C10 6.9 10.9 6 12 6ZM12 16C14.1624 16 16.5814 16.8274 17.5617 17.5217C17.8321 17.7132 17.6711 18 17.3397 18H6.68461C6.34597 18 6.18418 17.7037 6.46198 17.51C7.4591 16.8149 9.85369 16 12 16ZM12 4C9.79 4 8 5.79 8 8C8 10.21 9.79 12 12 12C14.21 12 16 10.21 16 8C16 5.79 14.21 4 12 4ZM12 14C9.33 14 4 15.34 4 18V19.5C4 19.7761 4.22386 20 4.5 20H19.5C19.7761 20 20 19.7761 20 19.5V18C20 15.34 14.67 14 12 14Z"></path>
  </symbol>
  <symbol xmlns="http://www.w3.org/2000/svg" viewBox="0 0 24 24" id="person_add">
    <path d="M15 12C17.21 12 19 10.21 19 8C19 5.79 17.21 4 15 4C12.79 4 11 5.79 11 8C11 10.21 12.79 12 15 12ZM6 10V8C6 7.45 5.55 7 5 7C4.45 7 4 7.45 4 8V10H2C1.45 10 1 10.45 1 11C1 11.55 1.45 12 2 12H4V14C4 14.55 4.45 15 5 15C5.55 15 6 14.55 6 14V12H8C8.55 12 9 11.55 9 11C9 10.45 8.55 10 8 10H6ZM15 14C12.33 14 7 15.34 7 18V19C7 19.55 7.45 20 8 20H22C22.55 20 23 19.55 23 19V18C23 15.34 17.67 14 15 14Z"></path>
  </symbol>
  <symbol xmlns="http://www.w3.org/2000/svg" viewBox="0 0 24 24" id="person_remove">
    <path d="M14 8C14 5.79 12.21 4 10 4C7.79 4 6 5.79 6 8C6 10.21 7.79 12 10 12C12.21 12 14 10.21 14 8ZM2 18V19C2 19.55 2.45 20 3 20H17C17.55 20 18 19.55 18 19V18C18 15.34 12.67 14 10 14C7.33 14 2 15.34 2 18ZM18 10H22C22.55 10 23 10.45 23 11C23 11.55 22.55 12 22 12H18C17.45 12 17 11.55 17 11C17 10.45 17.45 10 18 10Z"></path>
  </symbol>
  <symbol xmlns="http://www.w3.org/2000/svg" viewBox="0 0 24 24" id="phone">
    <path d="M20.01 15.38C18.78 15.38 17.59 15.18 16.48 14.82C16.13 14.7 15.74 14.79 15.47 15.06L13.9 17.03C11.07 15.68 8.42 13.13 7.01 10.2L8.96 8.54C9.23 8.26 9.31 7.87 9.2 7.52C8.83 6.41 8.64 5.22 8.64 3.99C8.64 3.45 8.19 3 7.65 3H4.19C3.65 3 3 3.24 3 3.99C3 13.28 10.73 21 20.01 21C20.72 21 21 20.37 21 19.82V16.37C21 15.83 20.55 15.38 20.01 15.38Z"></path>
  </symbol>
  <symbol xmlns="http://www.w3.org/2000/svg" viewBox="0 0 24 24" id="play_circle_outline">
    <g clip-path="url(#clip0_666_18721)">
      <circle cx="12" cy="12" r="8" fill="white"></circle>
      <path d="M10 16.5L16 12L10 7.5V16.5ZM12 2C6.48 2 2 6.48 2 12C2 17.52 6.48 22 12 22C17.52 22 22 17.52 22 12C22 6.48 17.52 2 12 2ZM12 20C7.59 20 4 16.41 4 12C4 7.59 7.59 4 12 4C16.41 4 20 7.59 20 12C20 16.41 16.41 20 12 20Z"></path>
    </g>
    <defs>
      <clipPath id="clip0_666_18721">
        <rect width="24" height="24" fill="white"></rect>
      </clipPath>
    </defs>
  </symbol>
  <symbol xmlns="http://www.w3.org/2000/svg" viewBox="0 0 24 24" id="room">
    <path d="M12 2C8.13 2 5 5.13 5 9C5 13.17 9.42 18.92 11.24 21.11C11.64 21.59 12.37 21.59 12.77 21.11C14.58 18.92 19 13.17 19 9C19 5.13 15.87 2 12 2ZM12 11.5C10.62 11.5 9.5 10.38 9.5 9C9.5 7.62 10.62 6.5 12 6.5C13.38 6.5 14.5 7.62 14.5 9C14.5 10.38 13.38 11.5 12 11.5Z"></path>
  </symbol>
  <symbol xmlns="http://www.w3.org/2000/svg" viewBox="0 0 24 24" id="search">
    <path d="M15.5 14H14.71L14.43 13.73C15.63 12.33 16.25 10.42 15.91 8.39002C15.44 5.61002 13.12 3.39002 10.32 3.05002C6.09001 2.53002 2.53002 6.09001 3.05002 10.32C3.39002 13.12 5.61002 15.44 8.39002 15.91C10.42 16.25 12.33 15.63 13.73 14.43L14 14.71V15.5L18.25 19.75C18.66 20.16 19.33 20.16 19.74 19.75C20.15 19.34 20.15 18.67 19.74 18.26L15.5 14ZM9.50002 14C7.01002 14 5.00002 11.99 5.00002 9.50002C5.00002 7.01002 7.01002 5.00002 9.50002 5.00002C11.99 5.00002 14 7.01002 14 9.50002C14 11.99 11.99 14 9.50002 14Z"></path>
  </symbol>
  <symbol xmlns="http://www.w3.org/2000/svg" viewBox="0 0 24 24" id="send">
    <path d="M3.4 20.4L20.85 12.92C21.66 12.57 21.66 11.43 20.85 11.08L3.4 3.60002C2.74 3.31002 2.01 3.80002 2.01 4.51002L2 9.12002C2 9.62002 2.37 10.05 2.87 10.11L17 12L2.87 13.88C2.37 13.95 2 14.38 2 14.88L2.01 19.49C2.01 20.2 2.74 20.69 3.4 20.4Z"></path>
  </symbol>
  <symbol xmlns="http://www.w3.org/2000/svg" viewBox="0 0 24 24" id="settings">
    <path d="M19.43 12.98C19.47 12.66 19.5 12.34 19.5 12C19.5 11.66 19.47 11.34 19.43 11.02L21.54 9.37C21.73 9.22 21.78 8.95 21.66 8.73L19.66 5.27C19.54 5.05 19.27 4.97 19.05 5.05L16.56 6.05C16.04 5.65 15.48 5.32 14.87 5.07L14.49 2.42C14.46 2.18 14.25 2 14 2H9.99996C9.74996 2 9.53996 2.18 9.50996 2.42L9.12996 5.07C8.51996 5.32 7.95996 5.66 7.43996 6.05L4.94996 5.05C4.71996 4.96 4.45996 5.05 4.33996 5.27L2.33996 8.73C2.20996 8.95 2.26996 9.22 2.45996 9.37L4.56996 11.02C4.52996 11.34 4.49996 11.67 4.49996 12C4.49996 12.33 4.52996 12.66 4.56996 12.98L2.45996 14.63C2.26996 14.78 2.21996 15.05 2.33996 15.27L4.33996 18.73C4.45996 18.95 4.72996 19.03 4.94996 18.95L7.43996 17.95C7.95996 18.35 8.51996 18.68 9.12996 18.93L9.50996 21.58C9.53996 21.82 9.74996 22 9.99996 22H14C14.25 22 14.46 21.82 14.49 21.58L14.87 18.93C15.48 18.68 16.04 18.34 16.56 17.95L19.05 18.95C19.28 19.04 19.54 18.95 19.66 18.73L21.66 15.27C21.78 15.05 21.73 14.78 21.54 14.63L19.43 12.98ZM12 15.5C10.07 15.5 8.49996 13.93 8.49996 12C8.49996 10.07 10.07 8.5 12 8.5C13.93 8.5 15.5 10.07 15.5 12C15.5 13.93 13.93 15.5 12 15.5Z"></path>
  </symbol>
  <symbol xmlns="http://www.w3.org/2000/svg" viewBox="0 0 24 24" id="share">
    <path d="M18 16.08C17.24 16.08 16.56 16.38 16.04 16.85L8.91 12.7C8.96 12.47 9 12.24 9 12C9 11.76 8.96 11.53 8.91 11.3L15.96 7.19C16.5 7.69 17.21 8 18 8C19.66 8 21 6.66 21 5C21 3.34 19.66 2 18 2C16.34 2 15 3.34 15 5C15 5.24 15.04 5.47 15.09 5.7L8.04 9.81C7.5 9.31 6.79 9 6 9C4.34 9 3 10.34 3 12C3 13.66 4.34 15 6 15C6.79 15 7.5 14.69 8.04 14.19L15.16 18.35C15.11 18.56 15.08 18.78 15.08 19C15.08 20.61 16.39 21.92 18 21.92C19.61 21.92 20.92 20.61 20.92 19C20.92 17.39 19.61 16.08 18 16.08Z"></path>
  </symbol>
  <symbol xmlns="http://www.w3.org/2000/svg" viewBox="0 0 24 24" id="shopping_bag">
    <path d="M18 6H16C16 3.79 14.21 2 12 2C9.79 2 8 3.79 8 6H6C4.9 6 4 6.9 4 8V20C4 21.1 4.9 22 6 22H18C19.1 22 20 21.1 20 20V8C20 6.9 19.1 6 18 6ZM10 10C10 10.55 9.55 11 9 11C8.45 11 8 10.55 8 10V8H10V10ZM12 4C13.1 4 14 4.9 14 6H10C10 4.9 10.9 4 12 4ZM16 10C16 10.55 15.55 11 15 11C14.45 11 14 10.55 14 10V8H16V10Z"></path>
  </symbol>
  <symbol xmlns="http://www.w3.org/2000/svg" viewBox="0 0 24 24" id="south">
    <path d="M18.3 14.29C17.91 13.9 17.28 13.9 16.89 14.29L13 18.17V3C13 2.45 12.55 2 12 2C11.45 2 11 2.45 11 3V18.18L7.11998 14.3C6.72998 13.91 6.09998 13.91 5.70998 14.3C5.31998 14.69 5.31998 15.32 5.70998 15.71L11.3 21.3C11.69 21.69 12.32 21.69 12.71 21.3L18.3 15.71C18.68 15.32 18.68 14.68 18.3 14.29Z"></path>
  </symbol>
  <symbol xmlns="http://www.w3.org/2000/svg" viewBox="0 0 24 24" id="swap_vert">
    <path d="M16 17.01V11C16 10.45 15.55 10 15 10C14.45 10 14 10.45 14 11V17.01H12.21C11.76 17.01 11.54 17.55 11.86 17.86L14.65 20.64C14.85 20.83 15.16 20.83 15.36 20.64L18.15 17.86C18.47 17.55 18.24 17.01 17.8 17.01H16ZM8.65003 3.35002L5.86003 6.14002C5.54003 6.45002 5.76003 6.99002 6.21003 6.99002H8.00003V13C8.00003 13.55 8.45003 14 9.00003 14C9.55003 14 10 13.55 10 13V6.99002H11.79C12.24 6.99002 12.46 6.45002 12.14 6.14002L9.35003 3.35002C9.16003 3.16002 8.84003 3.16002 8.65003 3.35002Z"></path>
  </symbol>
  <symbol xmlns="http://www.w3.org/2000/svg" viewBox="0 0 24 24" id="user">
    <path d="M12 12C14.21 12 16 10.21 16 8C16 5.79 14.21 4 12 4C9.79 4 8 5.79 8 8C8 10.21 9.79 12 12 12ZM12 14C9.33 14 4 15.34 4 18V20H20V18C20 15.34 14.67 14 12 14Z"></path>
  </symbol>
  <symbol xmlns="http://www.w3.org/2000/svg" viewBox="0 0 24 24" id="view_list">
    <path d="M4 14H6C6.55 14 7 13.55 7 13V11C7 10.45 6.55 10 6 10H4C3.45 10 3 10.45 3 11V13C3 13.55 3.45 14 4 14ZM4 19H6C6.55 19 7 18.55 7 18V16C7 15.45 6.55 15 6 15H4C3.45 15 3 15.45 3 16V18C3 18.55 3.45 19 4 19ZM4 9H6C6.55 9 7 8.55 7 8V6C7 5.45 6.55 5 6 5H4C3.45 5 3 5.45 3 6V8C3 8.55 3.45 9 4 9ZM9 14H19C19.55 14 20 13.55 20 13V11C20 10.45 19.55 10 19 10H9C8.45 10 8 10.45 8 11V13C8 13.55 8.45 14 9 14ZM9 19H19C19.55 19 20 18.55 20 18V16C20 15.45 19.55 15 19 15H9C8.45 15 8 15.45 8 16V18C8 18.55 8.45 19 9 19ZM8 6V8C8 8.55 8.45 9 9 9H19C19.55 9 20 8.55 20 8V6C20 5.45 19.55 5 19 5H9C8.45 5 8 5.45 8 6Z"></path>
  </symbol>
  <symbol xmlns="http://www.w3.org/2000/svg" viewBox="0 0 24 24" id="view_module">
    <path d="M5 11H8C8.55 11 9 10.55 9 10V6C9 5.45 8.55 5 8 5H5C4.45 5 4 5.45 4 6V10C4 10.55 4.45 11 5 11ZM5 18H8C8.55 18 9 17.55 9 17V13C9 12.45 8.55 12 8 12H5C4.45 12 4 12.45 4 13V17C4 17.55 4.45 18 5 18ZM11 18H14C14.55 18 15 17.55 15 17V13C15 12.45 14.55 12 14 12H11C10.45 12 10 12.45 10 13V17C10 17.55 10.45 18 11 18ZM17 18H20C20.55 18 21 17.55 21 17V13C21 12.45 20.55 12 20 12H17C16.45 12 16 12.45 16 13V17C16 17.55 16.45 18 17 18ZM11 11H14C14.55 11 15 10.55 15 10V6C15 5.45 14.55 5 14 5H11C10.45 5 10 5.45 10 6V10C10 10.55 10.45 11 11 11ZM16 6V10C16 10.55 16.45 11 17 11H20C20.55 11 21 10.55 21 10V6C21 5.45 20.55 5 20 5H17C16.45 5 16 5.45 16 6Z"></path>
  </symbol>
  <symbol xmlns="http://www.w3.org/2000/svg" viewBox="0 0 24 24" id="visibility">
    <g clip-path="url(#clip0_678_11459)">
      <path d="M12 4C7 4 2.73 7.11 1 11.5C2.73 15.89 7 19 12 19C17 19 21.27 15.89 23 11.5C21.27 7.11 17 4 12 4ZM12 16.5C9.24 16.5 7 14.26 7 11.5C7 8.74 9.24 6.5 12 6.5C14.76 6.5 17 8.74 17 11.5C17 14.26 14.76 16.5 12 16.5ZM12 8.5C10.34 8.5 9 9.84 9 11.5C9 13.16 10.34 14.5 12 14.5C13.66 14.5 15 13.16 15 11.5C15 9.84 13.66 8.5 12 8.5Z"></path>
    </g>
    <defs>
      <clipPath id="clip0_678_11459">
        <rect width="24" height="24" fill="white"></rect>
      </clipPath>
    </defs>
  </symbol>
  <symbol xmlns="http://www.w3.org/2000/svg" viewBox="0 0 24 24" id="visibility_off">
    <g clip-path="url(#clip0_678_11462)">
      <path d="M12 6.49999C14.76 6.49999 17 8.73999 17 11.5C17 12.01 16.9 12.5 16.76 12.96L19.82 16.02C21.21 14.79 22.31 13.25 23 11.49C21.27 7.10999 17 3.99999 12 3.99999C10.73 3.99999 9.51 4.19999 8.36 4.56999L10.53 6.73999C11 6.59999 11.49 6.49999 12 6.49999ZM2.71 3.15999C2.32 3.54999 2.32 4.17999 2.71 4.56999L4.68 6.53999C3.06 7.82999 1.77 9.52999 1 11.5C2.73 15.89 7 19 12 19C13.52 19 14.97 18.7 16.31 18.18L19.03 20.9C19.42 21.29 20.05 21.29 20.44 20.9C20.83 20.51 20.83 19.88 20.44 19.49L4.13 3.15999C3.74 2.76999 3.1 2.76999 2.71 3.15999ZM12 16.5C9.24 16.5 7 14.26 7 11.5C7 10.73 7.18 9.99999 7.49 9.35999L9.06 10.93C9.03 11.11 9 11.3 9 11.5C9 13.16 10.34 14.5 12 14.5C12.2 14.5 12.38 14.47 12.57 14.43L14.14 16C13.49 16.32 12.77 16.5 12 16.5ZM14.97 11.17C14.82 9.76999 13.72 8.67999 12.33 8.52999L14.97 11.17Z"></path>
    </g>
    <defs>
      <clipPath id="clip0_678_11462">
        <rect width="24" height="24" fill="white"></rect>
      </clipPath>
    </defs>
  </symbol>
  <symbol xmlns="http://www.w3.org/2000/svg" viewBox="0 0 24 24" id="warning">
    <path d="M4.47 21H19.53C21.07 21 22.03 19.33 21.26 18L13.73 4.98999C12.96 3.65999 11.04 3.65999 10.27 4.98999L2.74 18C1.97 19.33 2.93 21 4.47 21ZM12 14C11.45 14 11 13.55 11 13V11C11 10.45 11.45 9.99999 12 9.99999C12.55 9.99999 13 10.45 13 11V13C13 13.55 12.55 14 12 14ZM13 18H11V16H13V18Z"></path>
  </symbol>
  <symbol xmlns="http://www.w3.org/2000/svg" viewBox="0 0 24 24" id="west">
    <g clip-path="url(#clip0_60_44185)">
      <path d="M9.69997 18.3C10.09 17.91 10.09 17.28 9.69997 16.89L5.82997 13H21C21.55 13 22 12.55 22 12C22 11.45 21.55 11 21 11H5.82997L9.70997 7.11998C10.1 6.72998 10.1 6.09998 9.70997 5.70998C9.31997 5.31998 8.68997 5.31998 8.29997 5.70998L2.69997 11.3C2.30997 11.69 2.30997 12.32 2.69997 12.71L8.28997 18.3C8.67997 18.68 9.31997 18.68 9.69997 18.3Z"></path>
    </g>
    <defs>
      <clipPath id="clip0_60_44185">
        <rect width="24" height="24" fill="white"></rect>
      </clipPath>
    </defs>
  </symbol>
</svg>